<svg width="24" height="25" viewBox="0 0 24 25" fill="none" xmlns="http://www.w3.org/2000/svg">
<mask id="mask0_0_96" style="mask-type:alpha" maskUnits="userSpaceOnUse" x="0" y="1" width="24" height="24">
<rect y="1" width="24" height="24" fill="#D9D9D9"/>
</mask>
<g mask="url(#mask0_0_96)">
</g>
<g clip-path="url(#clip0_0_96)">
<path d="M21.792 6.9152C21.7856 6.8768 21.776 6.8416 21.7632 6.8096C21.696 6.6368 21.5264 6.5216 21.3376 6.5216C21.3248 6.5216 21.3088 6.5216 21.296 6.5248C21.2512 6.528 21.2096 6.5312 21.1648 6.5312C20.8096 6.5312 20.4672 6.4032 20.1984 6.176C20.0704 6.0672 19.9584 5.936 19.872 5.7856C19.84 5.7312 19.8144 5.6736 19.7888 5.616C19.712 5.4304 19.6768 5.2416 19.6768 5.0528C19.6768 4.6144 19.872 4.1888 20.2144 3.904C20.3712 3.7728 20.4192 3.5616 20.3488 3.3792C20.3328 3.344 20.3136 3.3088 20.2912 3.2736C19.8464 2.6816 19.3216 2.1568 18.7296 1.712C18.6976 1.6864 18.6624 1.6672 18.624 1.6544C18.5696 1.632 18.512 1.6224 18.4544 1.6224C18.3232 1.6224 18.192 1.68 18.1024 1.7888C17.8176 2.1312 17.3952 2.3264 16.9536 2.3264C16.8896 2.3264 16.8256 2.3232 16.7616 2.3136C16.704 2.3072 16.6464 2.2944 16.5856 2.2784C16.5184 2.2624 16.4544 2.24 16.3872 2.2112C16.3296 2.1856 16.272 2.16 16.2176 2.128C15.7504 1.8592 15.472 1.36 15.472 0.835199C15.472 0.790399 15.4752 0.748799 15.4784 0.703999C15.4976 0.495999 15.376 0.310399 15.1904 0.236799C15.1584 0.223999 15.12 0.214399 15.0848 0.207999C14.7296 0.159999 14.368 0.134399 14 0.134399C13.632 0.134399 13.2704 0.159999 12.9152 0.207999C12.8768 0.214399 12.8416 0.223999 12.8096 0.236799C12.624 0.310399 12.5056 0.499199 12.5216 0.703999C12.5728 1.2736 12.288 1.8368 11.7824 2.128C11.728 2.16 11.6704 2.1856 11.6128 2.2112C11.5488 2.2368 11.4816 2.2592 11.4144 2.2784C11.3856 2.2848 11.36 2.2912 11.3312 2.2976C11.2992 2.304 11.2704 2.3072 11.2384 2.3136C11.1744 2.3232 11.1104 2.3264 11.0464 2.3264C10.608 2.3264 10.1824 2.1312 9.89763 1.7888C9.80803 1.68 9.67683 1.6224 9.54243 1.6224C9.48483 1.6224 9.42723 1.632 9.37283 1.6544C9.33763 1.6704 9.30243 1.6896 9.26723 1.712C8.67523 2.1568 8.15043 2.6816 7.70563 3.2736C7.68003 3.3056 7.66083 3.3408 7.64803 3.3792C7.57443 3.5584 7.62563 3.7728 7.78243 3.904C8.27203 4.3072 8.46403 4.9984 8.21123 5.6128C8.18563 5.6704 8.16003 5.728 8.12803 5.7824C8.04163 5.9328 7.92963 6.064 7.80163 6.1728C7.75363 6.2144 7.70563 6.2496 7.65123 6.2848C7.41123 6.4416 7.12643 6.528 6.83203 6.528C6.78723 6.528 6.74563 6.5248 6.70083 6.5216C6.68803 6.5216 6.67203 6.5184 6.65923 6.5184C6.47043 6.5184 6.30083 6.6336 6.23363 6.8064C6.22083 6.8384 6.21123 6.8768 6.20483 6.912C6.15683 7.2672 6.13123 7.6288 6.13123 7.9968C6.13123 8.3648 6.15683 8.7264 6.20483 9.0816C6.21123 9.12 6.22083 9.1552 6.23363 9.1872C6.30083 9.36 6.47043 9.4752 6.65923 9.4752C6.67203 9.4752 6.68803 9.4752 6.70083 9.472C6.74563 9.4688 6.78723 9.4656 6.83203 9.4656C7.41443 9.4656 7.97123 9.8112 8.20803 10.3808C8.46083 10.9952 8.26883 11.6864 7.78243 12.0928C7.62563 12.224 7.57763 12.4352 7.64803 12.6176C7.66403 12.6528 7.68323 12.688 7.70563 12.7232C8.15043 13.3152 8.67523 13.84 9.26723 14.2848C9.29923 14.3104 9.33443 14.3296 9.37283 14.3424C9.42723 14.3648 9.48483 14.3744 9.54243 14.3744C9.67363 14.3744 9.80483 14.3168 9.89763 14.208C10.1824 13.8656 10.6048 13.6704 11.0464 13.6704C11.2352 13.6704 11.4272 13.7056 11.6096 13.7824C12.224 14.0352 12.576 14.6592 12.5184 15.2896C12.4992 15.4976 12.6208 15.6832 12.8064 15.7568C12.8384 15.7696 12.8768 15.7792 12.912 15.7856C13.2672 15.8336 13.6288 15.8592 13.9968 15.8592C14.3648 15.8592 14.7264 15.8336 15.0816 15.7856C15.12 15.7792 15.1552 15.7696 15.1872 15.7568C15.3728 15.6832 15.4912 15.4944 15.4752 15.2896C15.4176 14.6592 15.7728 14.0352 16.384 13.7824C16.5696 13.7056 16.7584 13.6704 16.9472 13.6704C17.3856 13.6704 17.8112 13.8656 18.096 14.208C18.1856 14.3168 18.3168 14.3744 18.448 14.3744C18.5056 14.3744 18.5632 14.3648 18.6176 14.3424C18.6528 14.3264 18.688 14.3072 18.7232 14.2848C19.3152 13.84 19.84 13.3152 20.2848 12.7232C20.3104 12.6912 20.3296 12.656 20.3424 12.6176C20.416 12.4384 20.3648 12.224 20.208 12.0928C19.7216 11.6864 19.5296 10.9952 19.7824 10.3808C20.0192 9.8112 20.576 9.4656 21.1584 9.4656C21.2032 9.4656 21.2448 9.4688 21.2896 9.472C21.3024 9.472 21.3184 9.4752 21.3312 9.4752C21.52 9.4752 21.6896 9.36 21.7568 9.1872C21.7696 9.1552 21.7792 9.12 21.7856 9.0816C21.8336 8.7264 21.8592 8.3648 21.8592 7.9968C21.8656 7.632 21.8432 7.2704 21.792 6.9152ZM14 11.4208C12.112 11.4208 10.5792 9.8848 10.5792 8C10.5792 6.112 12.1152 4.5792 14 4.5792C15.888 4.5792 17.4208 6.1152 17.4208 8C17.4208 9.888 15.888 11.4208 14 11.4208Z" fill="white"/>
</g>
<defs>
<clipPath id="clip0_0_96">
<rect width="16" height="16" fill="white" transform="translate(6)"/>
</clipPath>
</defs>
</svg>
