<svg width="24" height="24" viewBox="0 0 24 24" fill="none" xmlns="http://www.w3.org/2000/svg">
<mask id="mask0_0_174" style="mask-type:alpha" maskUnits="userSpaceOnUse" x="0" y="0" width="24" height="24">
<rect width="24" height="24" fill="#D9D9D9"/>
</mask>
<g mask="url(#mask0_0_174)">
</g>
<path d="M21.3304 8.47921H2.6696C2.8408 6.67281 4.3616 5.25961 6.2132 5.25961H17.7868C19.6384 5.25961 21.1592 6.67281 21.3304 8.47921Z" fill="#727276"/>
<path d="M21.3468 10.1948V16.2692C21.3468 18.2352 19.7532 19.8292 17.7868 19.8292H6.2132C4.2468 19.8292 2.6532 18.2352 2.6532 16.2692V10.1948H4.4132V16.2692C4.4132 17.2616 5.2208 18.0692 6.2132 18.0692H17.7868C18.7792 18.0692 19.5868 17.2616 19.5868 16.2692V10.1948H21.3468Z" fill="#727276"/>
<path d="M7.99 4V6.03H6.2356V4C6.2356 3.5156 6.6284 3.1228 7.1128 3.1228C7.5972 3.1228 7.99 3.5156 7.99 4Z" fill="#727276"/>
<path d="M17.7644 4V6.03H16.01V4C16.01 3.5156 16.4028 3.1228 16.8872 3.1228C17.372 3.1228 17.7644 3.5156 17.7644 4Z" fill="#727276"/>
</svg>
