<svg width="21" height="17" viewBox="0 0 21 17" fill="none" xmlns="http://www.w3.org/2000/svg">
<path d="M20.0455 9.84375H2.86364C2.32909 9.84375 1.90909 9.225 1.90909 8.4375C1.90909 7.65 2.32909 7.03125 2.86364 7.03125H20.0455C20.58 7.03125 21 7.65 21 8.4375C21 9.225 20.58 9.84375 20.0455 9.84375Z" fill="#F8F8F8"/>
<path d="M7.90163 16.8329C7.77209 16.8346 7.64366 16.8074 7.52458 16.753C7.40551 16.6987 7.29843 16.6184 7.21024 16.5173L0.296311 9.1529C-0.0987704 8.73207 -0.0987704 8.0798 0.296311 7.65898L7.21024 0.315617C7.60532 -0.105206 8.2177 -0.105206 8.61278 0.315617C9.00786 0.73644 9.00786 1.38872 8.61278 1.80954L2.39024 8.4375L8.61278 15.0655C9.00786 15.4863 9.00786 16.1386 8.61278 16.5594C8.41524 16.7698 8.15844 16.875 7.92139 16.875L7.90163 16.8329Z" fill="#F8F8F8"/>
</svg>
