<svg width="14" height="18" viewBox="0 0 14 18" fill="none" xmlns="http://www.w3.org/2000/svg">
<path d="M9.33103 12.481C9.04077 12.1907 9.04077 11.7164 9.33103 11.4226L12.9416 7.81203L14 8.87042L10.3894 12.481C10.0956 12.7713 9.62129 12.7713 9.33103 12.481Z" fill="#FF4564"/>
<path d="M9.31685 5.25274C9.60711 4.96248 10.0814 4.96248 10.3752 5.25274L13.9858 8.86331L12.9274 9.9217L9.31685 6.30759C9.02659 6.01733 9.02659 5.543 9.31685 5.25274Z" fill="#FF4564"/>
<path d="M4.16629 8.86682C4.16629 8.4562 4.49903 8.11992 4.91318 8.11992H11.8688V9.61371H4.91318C4.50257 9.61371 4.16629 9.28097 4.16629 8.86682Z" fill="#FF4564"/>
<path d="M9.89223 0.760941H3.75916C2.10128 0.760941 0.760941 2.04942 0.760941 3.63524V14.1201C0.760941 15.7094 2.10497 16.9943 3.75916 16.9943H9.89223" stroke="#FF4564" stroke-width="1.5" stroke-miterlimit="10" stroke-linecap="round"/>
</svg>
