<svg width="33" height="33" viewBox="0 0 33 33" fill="none" xmlns="http://www.w3.org/2000/svg">
<g clip-path="url(#clip0_0_111)">
<path d="M25.5963 18.0756H2.00601C1.47912 18.0678 0.976437 17.8527 0.606589 17.4769C0.236741 17.101 0.0294189 16.5945 0.0294189 16.0668C0.0294189 15.5392 0.236741 15.0327 0.606589 14.6568C0.976437 14.281 1.47912 14.0659 2.00601 14.0581H25.5961C25.862 14.0541 26.1261 14.1032 26.3729 14.2024C26.6197 14.3016 26.8444 14.4489 27.0338 14.6358C27.2233 14.8227 27.3737 15.0455 27.4764 15.2912C27.5791 15.5369 27.632 15.8005 27.632 16.0668C27.632 16.3332 27.5791 16.5968 27.4764 16.8425C27.3737 17.0882 27.2233 17.311 27.0338 17.4979C26.8444 17.6848 26.6197 17.8321 26.3729 17.9313C26.1261 18.0305 25.862 18.0796 25.5961 18.0756H25.5963Z" fill="white"/>
<path d="M30.9939 25.3329H2.00601C1.47912 25.3251 0.976437 25.11 0.606589 24.7341C0.236741 24.3583 0.0294189 23.8518 0.0294189 23.3241C0.0294189 22.7964 0.236741 22.2899 0.606589 21.9141C0.976437 21.5382 1.47912 21.3231 2.00601 21.3153H30.9939C31.5208 21.3231 32.0235 21.5382 32.3934 21.9141C32.7632 22.2899 32.9705 22.7964 32.9705 23.3241C32.9705 23.8518 32.7632 24.3583 32.3934 24.7341C32.0235 25.11 31.5208 25.3251 30.9939 25.3329Z" fill="white"/>
<path d="M26.5088 33H2.00601C1.47912 32.9922 0.976437 32.7771 0.606589 32.4013C0.236741 32.0254 0.0294189 31.5189 0.0294189 30.9913C0.0294189 30.4636 0.236741 29.9571 0.606589 29.5812C0.976437 29.2054 1.47912 28.9903 2.00601 28.9825H26.5088C27.0357 28.9903 27.5383 29.2054 27.9082 29.5812C28.278 29.9571 28.4854 30.4636 28.4854 30.9913C28.4854 31.5189 28.278 32.0254 27.9082 32.4013C27.5383 32.7771 27.0357 32.9922 26.5088 33Z" fill="white"/>
<path d="M12.5459 10.8184H2.00601C1.47912 10.8106 0.976437 10.5955 0.606589 10.2196C0.236741 9.84378 0.0294189 9.33729 0.0294189 8.80962C0.0294189 8.28194 0.236741 7.77546 0.606589 7.39959C0.976437 7.02372 1.47912 6.80865 2.00601 6.80085H12.5459C12.8118 6.79691 13.0759 6.84596 13.3227 6.94514C13.5696 7.04433 13.7942 7.19166 13.9837 7.37859C14.1731 7.56551 14.3236 7.78828 14.4262 8.03396C14.5289 8.27963 14.5818 8.54329 14.5818 8.80962C14.5818 9.07594 14.5289 9.33961 14.4262 9.58528C14.3236 9.83095 14.1731 10.0537 13.9837 10.2406C13.7942 10.4276 13.5696 10.5749 13.3227 10.6741C13.0759 10.7733 12.8118 10.8223 12.5459 10.8184Z" fill="white"/>
<path d="M12.5459 4.01754H2.00601C1.47912 4.00974 0.976437 3.79467 0.606589 3.4188C0.236741 3.04293 0.0294189 2.53645 0.0294189 2.00877C0.0294189 1.4811 0.236741 0.974613 0.606589 0.598745C0.976437 0.222876 1.47912 0.00780663 2.00601 5.9312e-06H12.5459C12.8118 -0.00393118 13.0759 0.0451182 13.3227 0.144301C13.5696 0.243484 13.7942 0.390822 13.9837 0.577743C14.1731 0.764665 14.3236 0.987441 14.4262 1.23311C14.5289 1.47879 14.5818 1.74245 14.5818 2.00877C14.5818 2.2751 14.5289 2.53876 14.4262 2.78444C14.3236 3.03011 14.1731 3.25288 13.9837 3.4398C13.7942 3.62673 13.5696 3.77406 13.3227 3.87325C13.0759 3.97243 12.8118 4.02148 12.5459 4.01754Z" fill="white"/>
</g>
<defs>
<clipPath id="clip0_0_111">
<rect width="33" height="33" fill="white"/>
</clipPath>
</defs>
</svg>
