<svg width="333" height="44" viewBox="0 0 333 44" fill="none" xmlns="http://www.w3.org/2000/svg">
<path d="M1.11861 40V29.8182H4.8473C5.56984 29.8182 6.16809 29.9375 6.64205 30.1761C7.116 30.4115 7.47064 30.7313 7.70597 31.1357C7.94129 31.5367 8.05895 31.9891 8.05895 32.4929C8.05895 32.9171 7.98106 33.2751 7.82528 33.5668C7.66951 33.8551 7.4607 34.0871 7.19886 34.2628C6.94034 34.4351 6.6553 34.5611 6.34375 34.6406V34.7401C6.68182 34.7566 7.0116 34.866 7.3331 35.0682C7.65791 35.267 7.92637 35.5504 8.13849 35.9183C8.35062 36.2862 8.45668 36.7337 8.45668 37.2607C8.45668 37.781 8.33404 38.2483 8.08878 38.6626C7.84683 39.0736 7.4723 39.4001 6.9652 39.642C6.4581 39.8807 5.81013 40 5.02131 40H1.11861ZM2.65483 38.6825H4.87216C5.60795 38.6825 6.13494 38.54 6.45312 38.255C6.77131 37.9699 6.9304 37.6136 6.9304 37.1861C6.9304 36.8646 6.8492 36.5696 6.68679 36.3011C6.52438 36.0327 6.29238 35.8189 5.99077 35.6598C5.69247 35.5007 5.33783 35.4212 4.92685 35.4212H2.65483V38.6825ZM2.65483 34.223H4.71307C5.05777 34.223 5.36766 34.1567 5.64276 34.0241C5.92116 33.8916 6.14157 33.706 6.30398 33.4673C6.4697 33.2254 6.55256 32.9403 6.55256 32.6122C6.55256 32.1913 6.40507 31.8383 6.11009 31.5533C5.8151 31.2682 5.36269 31.1257 4.75284 31.1257H2.65483V34.223ZM10.1594 40V32.3636H11.646V40H10.1594ZM10.9102 31.1854C10.6516 31.1854 10.4296 31.0992 10.244 30.9268C10.0617 30.7512 9.97053 30.5424 9.97053 30.3004C9.97053 30.0552 10.0617 29.8464 10.244 29.674C10.4296 29.4983 10.6516 29.4105 10.9102 29.4105C11.1687 29.4105 11.3891 29.4983 11.5714 29.674C11.757 29.8464 11.8498 30.0552 11.8498 30.3004C11.8498 30.5424 11.757 30.7512 11.5714 30.9268C11.3891 31.0992 11.1687 31.1854 10.9102 31.1854ZM15.1323 29.8182V40H13.6458V29.8182H15.1323ZM18.6186 29.8182V40H17.1321V29.8182H18.6186ZM20.6184 40V32.3636H22.1049V40H20.6184ZM21.3691 31.1854C21.1106 31.1854 20.8886 31.0992 20.7029 30.9268C20.5207 30.7512 20.4295 30.5424 20.4295 30.3004C20.4295 30.0552 20.5207 29.8464 20.7029 29.674C20.8886 29.4983 21.1106 29.4105 21.3691 29.4105C21.6277 29.4105 21.8481 29.4983 22.0304 29.674C22.216 29.8464 22.3088 30.0552 22.3088 30.3004C22.3088 30.5424 22.216 30.7512 22.0304 30.9268C21.8481 31.0992 21.6277 31.1854 21.3691 31.1854ZM25.5913 35.4659V40H24.1048V32.3636H25.5316V33.6065H25.6261C25.8017 33.2022 26.0768 32.8774 26.4513 32.6321C26.8292 32.3868 27.3048 32.2642 27.8782 32.2642C28.3986 32.2642 28.8543 32.3736 29.2454 32.5923C29.6365 32.8078 29.9397 33.1293 30.1552 33.5568C30.3706 33.9844 30.4783 34.513 30.4783 35.1428V40H28.9918V35.3217C28.9918 34.7682 28.8477 34.3357 28.5593 34.0241C28.271 33.7093 27.8749 33.5518 27.3711 33.5518C27.0264 33.5518 26.7198 33.6264 26.4513 33.7756C26.1862 33.9247 25.9757 34.1435 25.82 34.4318C25.6675 34.7169 25.5913 35.0616 25.5913 35.4659ZM35.6737 43.0227C35.0671 43.0227 34.5451 42.9432 34.1076 42.7841C33.6734 42.625 33.3188 42.4145 33.0437 42.1527C32.7686 41.8909 32.5631 41.6042 32.4272 41.2926L33.7049 40.7656C33.7944 40.9115 33.9137 41.0656 34.0629 41.228C34.2153 41.3937 34.4208 41.5346 34.6793 41.6506C34.9412 41.7666 35.2776 41.8246 35.6886 41.8246C36.252 41.8246 36.7177 41.687 37.0856 41.4119C37.4535 41.1402 37.6374 40.706 37.6374 40.1094V38.608H37.543C37.4535 38.7704 37.3242 38.951 37.1552 39.1499C36.9895 39.3487 36.7608 39.5211 36.4691 39.6669C36.1774 39.8127 35.7979 39.8857 35.3306 39.8857C34.7274 39.8857 34.1838 39.7448 33.6999 39.4631C33.2193 39.178 32.8382 38.7588 32.5565 38.2053C32.2781 37.6484 32.1388 36.964 32.1388 36.152C32.1388 35.34 32.2764 34.6439 32.5515 34.0639C32.8299 33.4839 33.2111 33.0398 33.695 32.7315C34.1789 32.42 34.7274 32.2642 35.3406 32.2642C35.8145 32.2642 36.1973 32.3438 36.489 32.5028C36.7807 32.6586 37.0077 32.8409 37.1701 33.0497C37.3358 33.2585 37.4634 33.4425 37.5529 33.6016H37.6623V32.3636H39.119V40.169C39.119 40.8253 38.9665 41.3639 38.6616 41.7848C38.3567 42.2057 37.944 42.5173 37.4237 42.7195C36.9066 42.9216 36.3233 43.0227 35.6737 43.0227ZM35.6587 38.6527C36.0863 38.6527 36.4476 38.5533 36.7425 38.3544C37.0408 38.1522 37.2662 37.8639 37.4187 37.4893C37.5745 37.1115 37.6523 36.6591 37.6523 36.1321C37.6523 35.6184 37.5761 35.166 37.4237 34.7749C37.2712 34.3838 37.0475 34.0788 36.7525 33.8601C36.4575 33.638 36.0929 33.527 35.6587 33.527C35.2113 33.527 34.8384 33.643 34.5401 33.875C34.2418 34.1037 34.0165 34.4152 33.864 34.8097C33.7148 35.2041 33.6403 35.6449 33.6403 36.1321C33.6403 36.6326 33.7165 37.0717 33.869 37.4496C34.0214 37.8274 34.2468 38.1224 34.5451 38.3345C34.8467 38.5466 35.2179 38.6527 35.6587 38.6527Z" fill="#006089"/>
<path d="M129.233 40V29.8182H132.673C133.472 29.8182 134.125 29.9624 134.632 30.2507C135.143 30.5357 135.52 30.9219 135.766 31.4091C136.011 31.8963 136.134 32.4399 136.134 33.0398C136.134 33.6397 136.011 34.1849 135.766 34.6754C135.524 35.166 135.149 35.5571 134.642 35.8487C134.135 36.1371 133.485 36.2812 132.693 36.2812H130.227V35.1875H132.653C133.2 35.1875 133.639 35.093 133.971 34.9041C134.302 34.7152 134.543 34.46 134.692 34.1385C134.844 33.8137 134.92 33.4474 134.92 33.0398C134.92 32.6321 134.844 32.2675 134.692 31.946C134.543 31.6245 134.301 31.3726 133.966 31.1903C133.631 31.0047 133.187 30.9119 132.634 30.9119H130.466V40H129.233ZM140.208 40.179C139.724 40.179 139.285 40.0878 138.89 39.9055C138.496 39.7199 138.183 39.4531 137.951 39.1051C137.719 38.7538 137.603 38.3295 137.603 37.8324C137.603 37.3949 137.689 37.0402 137.861 36.7685C138.033 36.4934 138.264 36.2779 138.552 36.1222C138.841 35.9664 139.159 35.8504 139.507 35.7741C139.858 35.6946 140.211 35.6316 140.566 35.5852C141.03 35.5256 141.406 35.4808 141.694 35.451C141.986 35.4179 142.198 35.3632 142.331 35.2869C142.467 35.2107 142.534 35.0781 142.534 34.8892V34.8494C142.534 34.3589 142.4 33.9777 142.132 33.706C141.867 33.4342 141.464 33.2983 140.924 33.2983C140.364 33.2983 139.924 33.4209 139.606 33.6662C139.288 33.9115 139.064 34.1733 138.935 34.4517L137.821 34.054C138.02 33.59 138.285 33.2287 138.617 32.9702C138.952 32.7083 139.316 32.526 139.711 32.4233C140.108 32.3172 140.499 32.2642 140.884 32.2642C141.129 32.2642 141.411 32.294 141.729 32.3537C142.051 32.41 142.36 32.5277 142.659 32.7067C142.96 32.8857 143.211 33.1558 143.409 33.517C143.608 33.8783 143.708 34.3622 143.708 34.9688V40H142.534V38.9659H142.475C142.395 39.1316 142.263 39.3089 142.077 39.4979C141.891 39.6868 141.645 39.8475 141.336 39.9801C141.028 40.1127 140.652 40.179 140.208 40.179ZM140.387 39.125C140.851 39.125 141.242 39.0339 141.56 38.8516C141.882 38.6693 142.123 38.4339 142.286 38.1456C142.452 37.8572 142.534 37.554 142.534 37.2358V36.1619C142.485 36.2216 142.375 36.2763 142.206 36.326C142.041 36.3724 141.848 36.4138 141.63 36.4503C141.414 36.4834 141.204 36.5133 140.998 36.5398C140.796 36.563 140.632 36.5829 140.506 36.5994C140.201 36.6392 139.916 36.7038 139.651 36.7933C139.389 36.8795 139.177 37.0104 139.015 37.1861C138.855 37.3584 138.776 37.5937 138.776 37.892C138.776 38.2997 138.927 38.608 139.228 38.8168C139.533 39.0223 139.919 39.125 140.387 39.125ZM146.331 42.8636C146.133 42.8636 145.955 42.8471 145.8 42.8139C145.644 42.7841 145.536 42.7543 145.476 42.7244L145.775 41.6903C146.06 41.7633 146.312 41.7898 146.53 41.7699C146.749 41.75 146.943 41.6522 147.112 41.4766C147.284 41.3042 147.442 41.0241 147.584 40.6364L147.803 40.0398L144.979 32.3636H146.252L148.36 38.4489H148.439L150.547 32.3636H151.82L148.579 41.1136C148.433 41.508 148.252 41.8345 148.037 42.093C147.821 42.3549 147.571 42.5488 147.286 42.6747C147.004 42.8007 146.686 42.8636 146.331 42.8636ZM153.369 40V32.3636H154.502V33.5568H154.602C154.761 33.1491 155.018 32.8326 155.372 32.6072C155.727 32.3786 156.153 32.2642 156.65 32.2642C157.154 32.2642 157.573 32.3786 157.908 32.6072C158.246 32.8326 158.509 33.1491 158.698 33.5568H158.778C158.973 33.1624 159.267 32.8492 159.658 32.6172C160.049 32.3819 160.518 32.2642 161.065 32.2642C161.748 32.2642 162.306 32.478 162.74 32.9055C163.174 33.3298 163.392 33.991 163.392 34.8892V40H162.218V34.8892C162.218 34.3258 162.064 33.9231 161.756 33.6811C161.448 33.4392 161.085 33.3182 160.667 33.3182C160.13 33.3182 159.714 33.4806 159.419 33.8054C159.124 34.1269 158.977 34.5346 158.977 35.0284V40H157.784V34.7699C157.784 34.3357 157.643 33.986 157.361 33.7209C157.079 33.4524 156.716 33.3182 156.272 33.3182C155.967 33.3182 155.682 33.3994 155.417 33.5618C155.155 33.7242 154.943 33.9496 154.781 34.2379C154.622 34.523 154.542 34.8527 154.542 35.2273V40H153.369ZM168.738 40.1591C168.003 40.1591 167.368 39.9967 166.834 39.6719C166.304 39.3438 165.895 38.8864 165.606 38.2997C165.321 37.7098 165.179 37.0237 165.179 36.2415C165.179 35.4593 165.321 34.7699 165.606 34.1733C165.895 33.5734 166.296 33.1061 166.809 32.7713C167.327 32.4332 167.93 32.2642 168.619 32.2642C169.017 32.2642 169.41 32.3305 169.797 32.4631C170.185 32.5956 170.538 32.8111 170.856 33.1094C171.175 33.4044 171.428 33.7955 171.617 34.2827C171.806 34.7699 171.9 35.3698 171.9 36.0824V36.5795H166.014V35.5653H170.707C170.707 35.1345 170.621 34.75 170.449 34.4119C170.28 34.0739 170.038 33.8071 169.723 33.6115C169.411 33.416 169.043 33.3182 168.619 33.3182C168.152 33.3182 167.747 33.4342 167.406 33.6662C167.068 33.8949 166.808 34.1932 166.626 34.5611C166.443 34.929 166.352 35.3234 166.352 35.7443V36.4205C166.352 36.9972 166.452 37.486 166.65 37.8871C166.853 38.2848 167.133 38.5881 167.491 38.7969C167.849 39.0024 168.265 39.1051 168.738 39.1051C169.047 39.1051 169.325 39.062 169.574 38.9759C169.826 38.8864 170.043 38.7538 170.225 38.5781C170.407 38.3991 170.548 38.1771 170.648 37.9119L171.781 38.2301C171.662 38.6146 171.461 38.9527 171.18 39.2443C170.898 39.5327 170.55 39.758 170.135 39.9205C169.721 40.0795 169.256 40.1591 168.738 40.1591ZM174.858 35.4062V40H173.685V32.3636H174.819V33.5568H174.918C175.097 33.169 175.369 32.8575 175.733 32.6222C176.098 32.3835 176.569 32.2642 177.145 32.2642C177.662 32.2642 178.115 32.3703 178.503 32.5824C178.89 32.7912 179.192 33.1094 179.407 33.5369C179.623 33.9612 179.731 34.4981 179.731 35.1477V40H178.557V35.2273C178.557 34.6274 178.402 34.16 178.09 33.8253C177.778 33.4872 177.351 33.3182 176.807 33.3182C176.433 33.3182 176.098 33.3994 175.803 33.5618C175.511 33.7242 175.281 33.9612 175.112 34.2727C174.943 34.5843 174.858 34.9621 174.858 35.4062ZM185.196 32.3636V33.358H181.238V32.3636H185.196ZM182.392 30.5341H183.565V37.8125C183.565 38.1439 183.613 38.3925 183.709 38.5582C183.809 38.7206 183.935 38.83 184.087 38.8864C184.243 38.9394 184.407 38.9659 184.579 38.9659C184.708 38.9659 184.815 38.9593 184.897 38.946C184.98 38.9295 185.047 38.9162 185.096 38.9062L185.335 39.9602C185.255 39.9901 185.144 40.0199 185.002 40.0497C184.859 40.0829 184.679 40.0994 184.46 40.0994C184.128 40.0994 183.804 40.0282 183.485 39.8857C183.171 39.7431 182.909 39.526 182.7 39.2344C182.494 38.9427 182.392 38.5748 182.392 38.1307V30.5341Z" fill="#C7C7C7"/>
<path d="M256.426 33H255.193C255.12 32.6454 254.993 32.3338 254.81 32.0653C254.631 31.7969 254.413 31.5715 254.154 31.3892C253.899 31.2036 253.616 31.0644 253.304 30.9716C252.992 30.8788 252.668 30.8324 252.33 30.8324C251.713 30.8324 251.155 30.9882 250.654 31.2997C250.157 31.6113 249.761 32.0703 249.466 32.6768C249.174 33.2834 249.028 34.0275 249.028 34.9091C249.028 35.7907 249.174 36.5348 249.466 37.1413C249.761 37.7479 250.157 38.2069 250.654 38.5185C251.155 38.83 251.713 38.9858 252.33 38.9858C252.668 38.9858 252.992 38.9394 253.304 38.8466C253.616 38.7538 253.899 38.6162 254.154 38.4339C254.413 38.2483 254.631 38.0213 254.81 37.7528C254.993 37.4811 255.12 37.1695 255.193 36.8182H256.426C256.333 37.3385 256.164 37.8042 255.919 38.2152C255.674 38.6262 255.369 38.9759 255.004 39.2642C254.64 39.5492 254.23 39.7663 253.776 39.9155C253.326 40.0646 252.843 40.1392 252.33 40.1392C251.461 40.1392 250.689 39.9271 250.013 39.5028C249.337 39.0786 248.805 38.4754 248.417 37.6932C248.029 36.911 247.835 35.983 247.835 34.9091C247.835 33.8352 248.029 32.9072 248.417 32.125C248.805 31.3428 249.337 30.7396 250.013 30.3153C250.689 29.8911 251.461 29.679 252.33 29.679C252.843 29.679 253.326 29.7536 253.776 29.9027C254.23 30.0518 254.64 30.2706 255.004 30.5589C255.369 30.844 255.674 31.192 255.919 31.603C256.164 32.0107 256.333 32.4763 256.426 33ZM261.362 40.1591C260.672 40.1591 260.067 39.995 259.547 39.6669C259.03 39.3388 258.626 38.8797 258.334 38.2898C258.046 37.6998 257.901 37.0104 257.901 36.2216C257.901 35.4261 258.046 34.7318 258.334 34.1385C258.626 33.5452 259.03 33.0845 259.547 32.7564C260.067 32.4283 260.672 32.2642 261.362 32.2642C262.051 32.2642 262.654 32.4283 263.171 32.7564C263.692 33.0845 264.096 33.5452 264.384 34.1385C264.676 34.7318 264.822 35.4261 264.822 36.2216C264.822 37.0104 264.676 37.6998 264.384 38.2898C264.096 38.8797 263.692 39.3388 263.171 39.6669C262.654 39.995 262.051 40.1591 261.362 40.1591ZM261.362 39.1051C261.885 39.1051 262.316 38.9709 262.654 38.7024C262.992 38.4339 263.243 38.081 263.405 37.6435C263.567 37.206 263.649 36.732 263.649 36.2216C263.649 35.7112 263.567 35.2356 263.405 34.7947C263.243 34.3539 262.992 33.9976 262.654 33.7259C262.316 33.4541 261.885 33.3182 261.362 33.3182C260.838 33.3182 260.407 33.4541 260.069 33.7259C259.731 33.9976 259.481 34.3539 259.318 34.7947C259.156 35.2356 259.075 35.7112 259.075 36.2216C259.075 36.732 259.156 37.206 259.318 37.6435C259.481 38.081 259.731 38.4339 260.069 38.7024C260.407 38.9709 260.838 39.1051 261.362 39.1051ZM267.786 35.4062V40H266.613V32.3636H267.746V33.5568H267.846C268.025 33.169 268.297 32.8575 268.661 32.6222C269.026 32.3835 269.496 32.2642 270.073 32.2642C270.59 32.2642 271.043 32.3703 271.43 32.5824C271.818 32.7912 272.12 33.1094 272.335 33.5369C272.551 33.9612 272.658 34.4981 272.658 35.1477V40H271.485V35.2273C271.485 34.6274 271.329 34.16 271.018 33.8253C270.706 33.4872 270.279 33.3182 269.735 33.3182C269.361 33.3182 269.026 33.3994 268.731 33.5618C268.439 33.7242 268.209 33.9612 268.04 34.2727C267.871 34.5843 267.786 34.9621 267.786 35.4062ZM278.203 32.3636V33.358H274.086V32.3636H278.203ZM275.319 40V31.3097C275.319 30.8722 275.422 30.5076 275.628 30.2159C275.833 29.9242 276.1 29.7055 276.428 29.5597C276.756 29.4138 277.103 29.3409 277.467 29.3409C277.756 29.3409 277.991 29.3641 278.173 29.4105C278.355 29.4569 278.491 29.5 278.581 29.5398L278.243 30.554C278.183 30.5341 278.1 30.5092 277.994 30.4794C277.891 30.4496 277.756 30.4347 277.586 30.4347C277.199 30.4347 276.919 30.5324 276.746 30.728C276.577 30.9235 276.493 31.2102 276.493 31.5881V40H275.319ZM279.847 40V32.3636H281.021V40H279.847ZM280.444 31.0909C280.215 31.0909 280.018 31.013 279.852 30.8572C279.69 30.7015 279.609 30.5142 279.609 30.2955C279.609 30.0767 279.69 29.8894 279.852 29.7337C280.018 29.5779 280.215 29.5 280.444 29.5C280.673 29.5 280.868 29.5779 281.031 29.7337C281.196 29.8894 281.279 30.0767 281.279 30.2955C281.279 30.5142 281.196 30.7015 281.031 30.8572C280.868 31.013 280.673 31.0909 280.444 31.0909ZM283.17 40V32.3636H284.303V33.517H284.383C284.522 33.1392 284.774 32.8326 285.138 32.5973C285.503 32.362 285.914 32.2443 286.371 32.2443C286.457 32.2443 286.565 32.246 286.694 32.2493C286.824 32.2526 286.921 32.2576 286.988 32.2642V33.4574C286.948 33.4474 286.857 33.4325 286.714 33.4126C286.575 33.3894 286.428 33.3778 286.272 33.3778C285.901 33.3778 285.569 33.4557 285.278 33.6115C284.989 33.764 284.76 33.9761 284.591 34.2479C284.426 34.5163 284.343 34.8229 284.343 35.1676V40H283.17ZM288.379 40V32.3636H289.512V33.5568H289.612C289.771 33.1491 290.027 32.8326 290.382 32.6072C290.737 32.3786 291.163 32.2642 291.66 32.2642C292.164 32.2642 292.583 32.3786 292.918 32.6072C293.256 32.8326 293.519 33.1491 293.708 33.5568H293.788C293.983 33.1624 294.277 32.8492 294.668 32.6172C295.059 32.3819 295.528 32.2642 296.075 32.2642C296.757 32.2642 297.316 32.478 297.75 32.9055C298.184 33.3298 298.401 33.991 298.401 34.8892V40H297.228V34.8892C297.228 34.3258 297.074 33.9231 296.766 33.6811C296.457 33.4392 296.094 33.3182 295.677 33.3182C295.14 33.3182 294.724 33.4806 294.429 33.8054C294.134 34.1269 293.987 34.5346 293.987 35.0284V40H292.793V34.7699C292.793 34.3357 292.652 33.986 292.371 33.7209C292.089 33.4524 291.726 33.3182 291.282 33.3182C290.977 33.3182 290.692 33.3994 290.427 33.5618C290.165 33.7242 289.953 33.9496 289.79 34.2379C289.631 34.523 289.552 34.8527 289.552 35.2273V40H288.379ZM302.794 40.179C302.31 40.179 301.871 40.0878 301.476 39.9055C301.082 39.7199 300.769 39.4531 300.537 39.1051C300.305 38.7538 300.189 38.3295 300.189 37.8324C300.189 37.3949 300.275 37.0402 300.447 36.7685C300.619 36.4934 300.85 36.2779 301.138 36.1222C301.426 35.9664 301.745 35.8504 302.093 35.7741C302.444 35.6946 302.797 35.6316 303.152 35.5852C303.616 35.5256 303.992 35.4808 304.28 35.451C304.572 35.4179 304.784 35.3632 304.917 35.2869C305.052 35.2107 305.12 35.0781 305.12 34.8892V34.8494C305.12 34.3589 304.986 33.9777 304.718 33.706C304.453 33.4342 304.05 33.2983 303.51 33.2983C302.949 33.2983 302.51 33.4209 302.192 33.6662C301.874 33.9115 301.65 34.1733 301.521 34.4517L300.407 34.054C300.606 33.59 300.871 33.2287 301.203 32.9702C301.538 32.7083 301.902 32.526 302.297 32.4233C302.694 32.3172 303.085 32.2642 303.47 32.2642C303.715 32.2642 303.997 32.294 304.315 32.3537C304.636 32.41 304.946 32.5277 305.245 32.7067C305.546 32.8857 305.797 33.1558 305.995 33.517C306.194 33.8783 306.294 34.3622 306.294 34.9688V40H305.12V38.9659H305.061C304.981 39.1316 304.849 39.3089 304.663 39.4979C304.477 39.6868 304.23 39.8475 303.922 39.9801C303.614 40.1127 303.238 40.179 302.794 40.179ZM302.973 39.125C303.437 39.125 303.828 39.0339 304.146 38.8516C304.467 38.6693 304.709 38.4339 304.872 38.1456C305.038 37.8572 305.12 37.554 305.12 37.2358V36.1619C305.071 36.2216 304.961 36.2763 304.792 36.326C304.627 36.3724 304.434 36.4138 304.216 36.4503C304 36.4834 303.79 36.5133 303.584 36.5398C303.382 36.563 303.218 36.5829 303.092 36.5994C302.787 36.6392 302.502 36.7038 302.237 36.7933C301.975 36.8795 301.763 37.0104 301.6 37.1861C301.441 37.3584 301.362 37.5937 301.362 37.892C301.362 38.2997 301.513 38.608 301.814 38.8168C302.119 39.0223 302.505 39.125 302.973 39.125ZM311.756 32.3636V33.358H307.799V32.3636H311.756ZM308.952 30.5341H310.126V37.8125C310.126 38.1439 310.174 38.3925 310.27 38.5582C310.369 38.7206 310.495 38.83 310.648 38.8864C310.803 38.9394 310.967 38.9659 311.14 38.9659C311.269 38.9659 311.375 38.9593 311.458 38.946C311.541 38.9295 311.607 38.9162 311.657 38.9062L311.895 39.9602C311.816 39.9901 311.705 40.0199 311.562 40.0497C311.42 40.0829 311.239 40.0994 311.02 40.0994C310.689 40.0994 310.364 40.0282 310.046 39.8857C309.731 39.7431 309.469 39.526 309.26 39.2344C309.055 38.9427 308.952 38.5748 308.952 38.1307V30.5341ZM313.521 40V32.3636H314.694V40H313.521ZM314.118 31.0909C313.889 31.0909 313.692 31.013 313.526 30.8572C313.364 30.7015 313.282 30.5142 313.282 30.2955C313.282 30.0767 313.364 29.8894 313.526 29.7337C313.692 29.5779 313.889 29.5 314.118 29.5C314.346 29.5 314.542 29.5779 314.704 29.7337C314.87 29.8894 314.953 30.0767 314.953 30.2955C314.953 30.5142 314.87 30.7015 314.704 30.8572C314.542 31.013 314.346 31.0909 314.118 31.0909ZM319.946 40.1591C319.256 40.1591 318.651 39.995 318.131 39.6669C317.614 39.3388 317.21 38.8797 316.918 38.2898C316.63 37.6998 316.485 37.0104 316.485 36.2216C316.485 35.4261 316.63 34.7318 316.918 34.1385C317.21 33.5452 317.614 33.0845 318.131 32.7564C318.651 32.4283 319.256 32.2642 319.946 32.2642C320.635 32.2642 321.238 32.4283 321.755 32.7564C322.276 33.0845 322.68 33.5452 322.968 34.1385C323.26 34.7318 323.406 35.4261 323.406 36.2216C323.406 37.0104 323.26 37.6998 322.968 38.2898C322.68 38.8797 322.276 39.3388 321.755 39.6669C321.238 39.995 320.635 40.1591 319.946 40.1591ZM319.946 39.1051C320.469 39.1051 320.9 38.9709 321.238 38.7024C321.576 38.4339 321.827 38.081 321.989 37.6435C322.151 37.206 322.233 36.732 322.233 36.2216C322.233 35.7112 322.151 35.2356 321.989 34.7947C321.827 34.3539 321.576 33.9976 321.238 33.7259C320.9 33.4541 320.469 33.3182 319.946 33.3182C319.422 33.3182 318.991 33.4541 318.653 33.7259C318.315 33.9976 318.065 34.3539 317.902 34.7947C317.74 35.2356 317.659 35.7112 317.659 36.2216C317.659 36.732 317.74 37.206 317.902 37.6435C318.065 38.081 318.315 38.4339 318.653 38.7024C318.991 38.9709 319.422 39.1051 319.946 39.1051ZM326.37 35.4062V40H325.197V32.3636H326.33V33.5568H326.43C326.609 33.169 326.881 32.8575 327.245 32.6222C327.61 32.3835 328.08 32.2642 328.657 32.2642C329.174 32.2642 329.627 32.3703 330.014 32.5824C330.402 32.7912 330.704 33.1094 330.919 33.5369C331.135 33.9612 331.242 34.4981 331.242 35.1477V40H330.069V35.2273C330.069 34.6274 329.913 34.16 329.602 33.8253C329.29 33.4872 328.863 33.3182 328.319 33.3182C327.945 33.3182 327.61 33.3994 327.315 33.5618C327.023 33.7242 326.793 33.9612 326.624 34.2727C326.455 34.5843 326.37 34.9621 326.37 35.4062Z" fill="#C7C7C7"/>
<circle cx="21" cy="10" r="9.5" fill="#DBDBDB" stroke="#006089"/>
<circle cx="156" cy="10" r="10" fill="#DBDBDB"/>
<circle cx="291" cy="10" r="10" fill="#DBDBDB"/>
<line x1="148" y1="10.5" x2="31" y2="10.5" stroke="#DBDBDB"/>
<line x1="281" y1="10.5" x2="164" y2="10.5" stroke="#DBDBDB"/>
</svg>
