<svg width="39" height="39" viewBox="0 0 39 39" fill="none" xmlns="http://www.w3.org/2000/svg">
<path d="M4.17857 8.00893C4.17857 6.99306 4.58212 6.01879 5.30046 5.30046C6.01879 4.58213 6.99305 4.17857 8.00893 4.17857H24.0268C24.5298 4.17857 25.0279 4.27765 25.4926 4.47014C25.9573 4.66264 26.3796 4.94478 26.7353 5.30046C27.0909 5.65614 27.3731 6.0784 27.5656 6.54312C27.7581 7.00784 27.8571 7.50592 27.8571 8.00893V23.6786H34.8214V29.5982C34.8214 30.9835 34.2711 32.312 33.2916 33.2916C32.312 34.2711 30.9835 34.8214 29.5982 34.8214H9.40178C8.0165 34.8214 6.68796 34.2711 5.70841 33.2916C4.72887 32.312 4.17857 30.9835 4.17857 29.5982V8.00893ZM27.8571 32.7321H29.5982C30.4294 32.7321 31.2265 32.402 31.8142 31.8142C32.402 31.2265 32.7321 30.4294 32.7321 29.5982V25.7679H27.8571V32.7321ZM9.75 12.1875C9.75 12.7641 10.218 13.2321 10.7946 13.2321H21.2411C21.5181 13.2321 21.7838 13.1221 21.9797 12.9262C22.1757 12.7303 22.2857 12.4646 22.2857 12.1875C22.2857 11.9104 22.1757 11.6447 21.9797 11.4488C21.7838 11.2529 21.5181 11.1429 21.2411 11.1429H10.7946C10.5176 11.1429 10.2519 11.2529 10.056 11.4488C9.86006 11.6447 9.75 11.9104 9.75 12.1875ZM10.7946 18.1071C10.5176 18.1071 10.2519 18.2172 10.056 18.4131C9.86006 18.609 9.75 18.8747 9.75 19.1518C9.75 19.4288 9.86006 19.6946 10.056 19.8905C10.2519 20.0864 10.5176 20.1964 10.7946 20.1964H21.2411C21.5181 20.1964 21.7838 20.0864 21.9797 19.8905C22.1757 19.6946 22.2857 19.4288 22.2857 19.1518C22.2857 18.8747 22.1757 18.609 21.9797 18.4131C21.7838 18.2172 21.5181 18.1071 21.2411 18.1071H10.7946ZM9.75 26.1161C9.75 26.6927 10.218 27.1607 10.7946 27.1607H15.6696C15.9467 27.1607 16.2124 27.0507 16.4083 26.8547C16.6042 26.6588 16.7143 26.3931 16.7143 26.1161C16.7143 25.839 16.6042 25.5733 16.4083 25.3774C16.2124 25.1815 15.9467 25.0714 15.6696 25.0714H10.7946C10.5176 25.0714 10.2519 25.1815 10.056 25.3774C9.86006 25.5733 9.75 25.839 9.75 26.1161Z" fill="#2C94C1"/>
</svg>
