<svg width="16" height="16" viewBox="0 0 16 16" fill="none" xmlns="http://www.w3.org/2000/svg">
<g clip-path="url(#clip0_146_1422)">
<path fill-rule="evenodd" clip-rule="evenodd" d="M15.854 0.145997C15.9232 0.215329 15.9705 0.303471 15.9901 0.399475C16.0097 0.495478 16.0006 0.595111 15.964 0.685997L13.164 7.686C13.1405 7.74826 13.1049 7.80521 13.0591 7.85351C13.0134 7.90181 12.9584 7.9405 12.8975 7.96729C12.8366 7.99409 12.771 8.00847 12.7044 8.00957C12.6379 8.01068 12.5718 7.9985 12.5101 7.97374C12.4483 7.94899 12.3921 7.91215 12.3448 7.8654C12.2974 7.81865 12.2599 7.76292 12.2344 7.70147C12.2089 7.64003 12.1959 7.57411 12.1961 7.50757C12.1964 7.44104 12.21 7.37523 12.236 7.314L14.131 2.576L6.63699 10.07L8.01299 12.232C8.04825 12.2874 8.07225 12.3492 8.08362 12.4139C8.09499 12.4786 8.0935 12.5449 8.07925 12.609C8.065 12.6732 8.03825 12.7338 8.00055 12.7876C7.96284 12.8414 7.91491 12.8872 7.85949 12.9225C7.80407 12.9578 7.74226 12.9818 7.67756 12.9931C7.61287 13.0045 7.54657 13.003 7.48245 12.9888C7.41833 12.9745 7.35765 12.9478 7.30387 12.9101C7.25008 12.8723 7.20425 12.8244 7.16899 12.769L5.63799 10.362L0.642993 7.184C0.526311 7.10998 0.432344 7.00517 0.371463 6.88112C0.310581 6.75708 0.285151 6.61863 0.297978 6.48105C0.310805 6.34347 0.361391 6.2121 0.444154 6.10145C0.526917 5.9908 0.638639 5.90517 0.766993 5.854L15.314 0.0369972C15.4049 0.000409439 15.5045 -0.00867028 15.6005 0.0108859C15.6965 0.0304421 15.7847 0.0777723 15.854 0.146997V0.145997ZM5.92999 9.363L13.424 1.869L1.59099 6.602L5.92999 9.363Z" fill="white"/>
<path d="M12.4999 16.0001C14.4112 16.0001 15.9999 14.4148 15.9999 12.5001C15.9999 10.5888 14.4077 9.00009 12.4964 9.00009C10.5818 9.00009 8.99994 10.5888 8.99994 12.5001C8.99994 14.4148 10.5851 16.0001 12.4999 16.0001ZM12.4898 14.209C12.2975 14.209 12.1946 14.0683 12.1946 13.8693V12.802H11.0691C10.8667 12.802 10.726 12.6957 10.726 12.507C10.726 12.3114 10.8563 12.2016 11.0691 12.2016H12.1946V11.0657C12.1946 10.8666 12.2975 10.7261 12.4898 10.7261C12.6819 10.7261 12.7985 10.8599 12.7985 11.0657V12.2016H13.9274C14.1367 12.2016 14.2672 12.3114 14.2672 12.507C14.2672 12.6957 14.13 12.802 13.9275 12.802H12.7985V13.8693C12.7985 14.0751 12.682 14.209 12.4898 14.209Z" fill="white"/>
</g>
<defs>
<clipPath id="clip0_146_1422">
<rect width="16" height="16" fill="white"/>
</clipPath>
</defs>
</svg>
