<svg width="23" height="17" viewBox="0 0 23 17" fill="none" xmlns="http://www.w3.org/2000/svg">
<path d="M19.2126 6.73956C20.7519 6.73956 21.9998 5.49166 21.9998 3.9523C21.9998 2.41294 20.7519 1.16504 19.2126 1.16504C17.6732 1.16504 16.4253 2.41294 16.4253 3.9523C16.4253 5.49166 17.6732 6.73956 19.2126 6.73956Z" stroke="#2C94C1" stroke-width="0.54" stroke-miterlimit="10"/>
<path d="M18.0246 7.37197C16.6027 7.0578 15.5394 5.79306 15.5394 4.27859C15.5394 4.06914 15.5595 3.86775 15.5998 3.67039C14.9191 3.34414 14.1498 3.19511 13.3563 3.28372C12.9293 3.33205 12.5064 3.49316 12.1077 3.66233C11.4028 3.96442 10.6778 4.12553 9.90847 4.10137C9.32846 4.08526 8.75248 4.09331 8.17248 4.0772C7.64886 4.06109 7.15746 3.89595 6.68218 3.6865C6.19078 3.47303 5.69536 3.28774 5.14757 3.25552C3.08532 3.12663 1.18418 4.60082 0.801539 6.63487C0.515563 8.15337 0.290004 9.68395 0.153058 11.2226C0.0966681 11.8711 0.0684731 12.5236 0.0281947 13.172C0.0241669 13.2566 0.00805567 13.3412 0 13.4218C0 13.7279 0 14.03 0 14.3361C0.0362505 14.4771 0.064445 14.618 0.104723 14.759C0.435006 15.8868 1.65141 16.8696 2.80337 16.9421C3.23838 16.9703 3.63311 16.8414 4.00367 16.632C4.53937 16.3299 4.98243 15.911 5.40133 15.4679C5.87258 14.9765 6.33578 14.473 6.80301 13.9816C6.91579 13.8648 7.04468 13.7601 7.17357 13.6554C7.44746 13.4339 7.75358 13.3251 8.11609 13.3332C8.93776 13.3493 9.75944 13.3493 10.5811 13.3332C10.9557 13.3251 11.29 13.4218 11.5518 13.6755C12.015 14.1226 12.4661 14.5858 12.9092 15.053C13.4046 15.5726 13.892 16.1003 14.4921 16.5071C15.2816 17.0428 16.0952 17.0871 16.9411 16.6481C17.7829 16.2131 18.4112 15.5928 18.6448 14.6422C18.6851 14.473 18.7053 14.2918 18.7012 14.1186C18.6811 12.6605 18.5844 11.2105 18.383 9.76853C18.2743 8.96296 18.1575 8.16545 18.0246 7.37197ZM7.06482 9.26102C6.79093 9.28519 6.51704 9.27311 6.24314 9.27311C6.16661 9.27311 6.08606 9.27311 5.97731 9.27311C5.97731 9.47853 5.97731 9.67186 5.97731 9.86117C5.97731 10.0303 5.98536 10.2035 5.96119 10.3727C5.90883 10.7715 5.55841 11.0574 5.17577 11.0333C4.76493 11.0051 4.46284 10.6909 4.45478 10.2801C4.45076 9.95381 4.45478 9.62353 4.45478 9.27311C4.16881 9.27311 3.89492 9.27713 3.62505 9.27311C3.50422 9.27311 3.37935 9.27311 3.26255 9.24491C2.89601 9.16033 2.6624 8.80588 2.70268 8.41518C2.73893 8.0567 3.04504 7.7667 3.4156 7.75461C3.75394 7.74656 4.09631 7.75461 4.45881 7.75461C4.45881 7.39614 4.45478 7.0578 4.45881 6.71946C4.46687 6.40932 4.6602 6.14751 4.95021 6.03876C5.23618 5.93 5.55841 6.00653 5.77189 6.23209C5.92897 6.39723 5.98133 6.59862 5.98133 6.81613C5.98133 7.11821 5.98133 7.42433 5.98133 7.75058C6.33175 7.75058 6.66204 7.74656 6.99635 7.75058C7.36288 7.75864 7.64483 7.99628 7.72136 8.35476C7.80997 8.78977 7.50386 9.22477 7.06482 9.26102ZM13.1025 11.0333C12.5105 11.0333 12.0191 10.5459 12.0191 9.94978C12.0191 9.35769 12.5105 8.8663 13.0985 8.8663C13.6946 8.8663 14.178 9.34964 14.178 9.94978C14.182 10.554 13.6987 11.0333 13.1025 11.0333ZM14.903 8.15337C14.3109 8.15337 13.8195 7.666 13.8195 7.07391C13.8195 6.48182 14.3028 5.99848 14.899 5.99445C15.4951 5.99042 15.9824 6.47376 15.9824 7.06988C15.9865 7.66197 15.4951 8.15337 14.903 8.15337Z" fill="#2C94C1"/>
<path d="M19.2449 5.56748C19.2046 5.55137 19.1603 5.54332 19.1281 5.51915C19.0395 5.46276 18.9992 5.37818 18.9992 5.27748C18.9992 4.94317 18.9992 4.61289 18.9992 4.27858C18.9992 4.26649 18.9992 4.25441 18.9992 4.2383C18.9831 4.2383 18.971 4.2383 18.9589 4.2383C18.6246 4.2383 18.2903 4.2383 17.956 4.2383C17.7949 4.2383 17.67 4.11344 17.67 3.96038C17.666 3.80329 17.7909 3.6744 17.9479 3.67037C18.0366 3.67037 18.1211 3.67037 18.2097 3.67037C18.4595 3.67037 18.7092 3.67037 18.9589 3.67037C18.971 3.67037 18.9831 3.67037 18.9992 3.67037C18.9992 3.65829 18.9992 3.64218 18.9992 3.6301C18.9992 3.29579 18.9992 2.96148 18.9992 2.62717C18.9992 2.47411 19.12 2.34522 19.2691 2.34119C19.4302 2.33313 19.5631 2.458 19.5671 2.62314C19.5671 2.84064 19.5671 3.06217 19.5671 3.27967C19.5671 3.39648 19.5671 3.51329 19.5671 3.63412C19.5671 3.64621 19.5671 3.65829 19.5671 3.67037C19.5832 3.67037 19.5953 3.67037 19.6074 3.67037C19.9337 3.67037 20.2599 3.67037 20.5862 3.67037C20.7513 3.67037 20.848 3.7469 20.8923 3.90802C20.8923 3.91204 20.8963 3.91204 20.8963 3.91607C20.8963 3.94024 20.8963 3.96843 20.8963 3.9926C20.8963 3.99663 20.8923 3.99663 20.8923 4.00066C20.852 4.16177 20.7513 4.2383 20.5862 4.2383C20.2599 4.2383 19.9337 4.2383 19.6074 4.2383C19.5953 4.2383 19.5832 4.2383 19.5671 4.2383C19.5671 4.25441 19.5671 4.26649 19.5671 4.27858C19.5671 4.61289 19.5671 4.94317 19.5671 5.27748C19.5671 5.40637 19.4946 5.51109 19.3778 5.55137C19.3577 5.55943 19.3416 5.56346 19.3214 5.56748C19.2932 5.56748 19.2691 5.56748 19.2449 5.56748Z" fill="#2C94C1"/>
</svg>
