<svg width="44" height="33" viewBox="0 0 44 33" fill="none" xmlns="http://www.w3.org/2000/svg">
<g clip-path="url(#clip0_233_164)">
<path d="M27.7188 4.12178C28.022 4.42499 28.5209 4.39927 28.792 4.06574C30.0903 2.46976 32.0703 1.44805 34.2837 1.44805C36.4971 1.44805 38.4762 2.46976 39.7754 4.06574C40.0465 4.39835 40.5454 4.42499 40.8486 4.12178C41.1096 3.86084 41.1344 3.4437 40.9019 3.15795C39.3372 1.23304 36.9519 0 34.2837 0C31.6155 0 29.2303 1.23212 27.6655 3.15795C27.4331 3.44462 27.4579 3.86176 27.7188 4.12178Z" fill="#2C94C1"/>
<path d="M34.2836 2.95142C32.4166 2.95142 30.7609 3.87482 29.7493 5.28795C29.5416 5.57738 29.571 5.97338 29.8228 6.22514L29.8237 6.22606C30.1388 6.54121 30.6635 6.49986 30.9226 6.13693C31.6714 5.08581 32.8989 4.39946 34.2845 4.39946C35.6701 4.39946 36.8976 5.08581 37.6464 6.13693C37.9055 6.49986 38.4293 6.54213 38.7453 6.22606L38.7462 6.22514C38.998 5.97338 39.0274 5.57738 38.8198 5.28795C37.8063 3.87482 36.1506 2.95142 34.2836 2.95142Z" fill="#2C94C1"/>
<path d="M36.3463 16.9216H36.3334V9.45075C36.3334 8.31877 35.4156 7.40088 34.2836 7.40088C33.1516 7.40088 32.2337 8.31877 32.2337 9.45075V16.9216H7.65369C3.42624 16.9216 0 20.3488 0 24.5753C0 28.8027 3.42716 32.229 7.65369 32.229H36.3463C40.5738 32.229 44 28.8018 44 24.5753C44 20.3488 40.5738 16.9216 36.3463 16.9216ZM8.36393 24.7885C8.26746 25.7624 7.47912 26.5507 6.50518 26.6472C5.18852 26.7777 4.09146 25.6797 4.22102 24.363C4.31749 23.3891 5.10583 22.6008 6.07977 22.5043C7.39734 22.3738 8.4944 23.4718 8.36393 24.7885ZM13.8253 26.6573C12.6759 26.6573 11.7433 25.7256 11.7433 24.5753C11.7433 23.4249 12.675 22.4933 13.8253 22.4933C14.9757 22.4933 15.9074 23.4249 15.9074 24.5753C15.9074 25.7256 14.9757 26.6573 13.8253 26.6573ZM21.3587 26.6573C20.2092 26.6573 19.2766 25.7256 19.2766 24.5753C19.2766 23.4249 20.2083 22.4933 21.3587 22.4933C22.509 22.4933 23.4407 23.4249 23.4407 24.5753C23.4407 25.7256 22.5081 26.6573 21.3587 26.6573Z" fill="#2C94C1"/>
</g>
<defs>
<clipPath id="clip0_233_164">
<rect width="44" height="32.2291" fill="white"/>
</clipPath>
</defs>
</svg>
