<svg width="20" height="34" viewBox="0 0 20 34" fill="none" xmlns="http://www.w3.org/2000/svg">
<path d="M19.9818 14.4277C19.9521 14.7227 19.8592 15.0001 19.7143 15.2264L7.2946 33.4265C7.13712 33.698 6.91825 33.8947 6.67043 33.9873C6.5647 34.0042 6.4577 34.0042 6.35198 33.9873C6.17174 33.9861 5.99373 33.934 5.82971 33.8343C5.57434 33.6743 5.37081 33.3967 5.2565 33.0526C5.14639 32.7461 5.11505 32.3997 5.16733 32.067L6.26281 20.4094H1.63887C1.3744 20.389 1.11514 20.3026 0.874587 20.1545C0.638759 19.9888 0.43668 19.7491 0.285777 19.456C0.134874 19.1629 0.039677 18.8253 0.00839553 18.4722C-0.0188677 18.1137 0.0205074 17.7519 0.123038 17.4186L4.93805 1.35968C5.06543 0.953536 5.27688 0.605169 5.54948 0.357064C5.82162 0.118611 6.14105 -0.00568017 6.46662 0.000199359H15.689C15.9552 0.00699677 16.2164 0.0936635 16.4533 0.255102C16.6928 0.433534 16.8979 0.685038 17.052 0.985824C17.1947 1.29001 17.2813 1.63158 17.3068 1.98844C17.3341 2.34294 17.2901 2.70075 17.1794 3.02505L14.135 12.4904H18.7844C19.0154 12.5008 19.24 12.5947 19.434 12.7623C19.6386 12.9448 19.7992 13.2023 19.8964 13.5039C19.9936 13.8054 20.0233 14.1381 19.9818 14.4617V14.4277Z" fill="#2C94C1"/>
</svg>
