<svg width="39" height="39" viewBox="0 0 39 39" fill="none" xmlns="http://www.w3.org/2000/svg">
<g clip-path="url(#clip0_202_1551)">
<path d="M20.6489 4.56299C21.224 3.98783 21.9938 3.64921 22.8064 3.61401C23.6191 3.57881 24.4153 3.84959 25.038 4.37287L25.2444 4.56299L34.437 13.754C35.0126 14.3292 35.3515 15.0994 35.3867 15.9124C35.4219 16.7253 35.1509 17.522 34.6271 18.1447L34.437 18.3511L18.3495 34.4386C17.7743 35.0131 17.0046 35.3511 16.1924 35.386C15.3802 35.4209 14.5844 35.1501 13.962 34.6271L13.754 34.437L4.56138 25.246C3.98599 24.6706 3.64738 23.9003 3.61248 23.0873C3.57758 22.2743 3.84892 21.4778 4.37288 20.8552L4.56138 20.6489L20.6489 4.56137V4.56299ZM32.1392 25.246C32.4317 24.9546 32.8241 24.7853 33.2367 24.7727C33.6494 24.7601 34.0514 24.9051 34.3611 25.1781C34.6707 25.4512 34.8649 25.8319 34.904 26.2429C34.9432 26.6539 34.8244 27.0644 34.5719 27.391L34.437 27.5437L27.5438 34.437C27.252 34.7315 26.8587 34.9034 26.4444 34.9175C26.03 34.9315 25.626 34.7867 25.3149 34.5126C25.0039 34.2385 24.8094 33.8559 24.7712 33.4431C24.733 33.0303 24.854 32.6185 25.1095 32.292L25.2444 32.1392L32.1392 25.246ZM22.9466 6.86074L6.85913 22.9482L16.0534 32.1392L32.1392 16.0517L22.9466 6.86074ZM14.3293 22.373C14.4637 22.2384 14.6411 22.1552 14.8305 22.138C15.02 22.1208 15.2095 22.1706 15.366 22.2787L15.4781 22.373L16.627 23.5219C16.7616 23.6563 16.8448 23.8337 16.862 24.0232C16.8792 24.2126 16.8294 24.4021 16.7213 24.5586L16.627 24.6707L15.4781 25.8196C15.3437 25.9542 15.1663 26.0374 14.9768 26.0546C14.7874 26.0718 14.5979 26.022 14.4414 25.9139L14.3276 25.8196L13.1804 24.6707C13.0458 24.5363 12.9626 24.3589 12.9454 24.1694C12.9282 23.98 12.978 23.7905 13.0861 23.634L13.1804 23.5202L14.3293 22.373ZM13.754 4.56299C14.0586 4.86773 14.2298 5.28098 14.2298 5.71187C14.2298 6.14276 14.0586 6.55601 13.754 6.86074L6.86075 13.754C6.70988 13.905 6.53075 14.0248 6.33358 14.1065C6.13642 14.1883 5.92508 14.2304 5.71164 14.2304C5.4982 14.2305 5.28683 14.1886 5.08961 14.1069C4.89238 14.0253 4.71317 13.9057 4.56219 13.7548C4.41121 13.6039 4.29142 13.4248 4.20967 13.2276C4.12792 13.0305 4.08581 12.8191 4.08573 12.6057C4.08566 12.3923 4.12762 12.1809 4.20923 11.9837C4.29085 11.7864 4.4105 11.6072 4.56138 11.4562L11.4563 4.56299C11.761 4.25835 12.1742 4.08721 12.6051 4.08721C13.036 4.08721 13.4493 4.25835 13.754 4.56299Z" fill="#2C94C1"/>
</g>
<defs>
<clipPath id="clip0_202_1551">
<rect width="39" height="39" fill="white"/>
</clipPath>
</defs>
</svg>
