<svg width="24" height="24" viewBox="0 0 24 24" fill="none" xmlns="http://www.w3.org/2000/svg">
<g clip-path="url(#clip0_90_2070)">
<path d="M12 21.025C11.2044 21.025 10.4413 20.7195 9.87868 20.1756C9.31607 19.6317 9 18.8941 9 18.125C9 17.9327 9.07902 17.7483 9.21967 17.6123C9.36032 17.4764 9.55109 17.4 9.75 17.4H14.25C14.4489 17.4 14.6397 17.4764 14.7803 17.6123C14.921 17.7483 15 17.9327 15 18.125C15 18.8941 14.6839 19.6317 14.1213 20.1756C13.5587 20.7195 12.7956 21.025 12 21.025ZM10.7025 18.85C10.8344 19.0697 11.0236 19.2521 11.2513 19.3789C11.479 19.5057 11.7372 19.5724 12 19.5724C12.2628 19.5724 12.521 19.5057 12.7487 19.3789C12.9764 19.2521 13.1656 19.0697 13.2975 18.85H10.7025Z" fill="#2C94C1"/>
<path d="M13.5 5.07499H10.5C10.3011 5.07499 10.1103 4.9986 9.96967 4.86264C9.82902 4.72668 9.75 4.54227 9.75 4.34999C9.75 3.77314 9.98705 3.21992 10.409 2.81203C10.831 2.40414 11.4033 2.17499 12 2.17499C12.5967 2.17499 13.169 2.40414 13.591 2.81203C14.0129 3.21992 14.25 3.77314 14.25 4.34999C14.25 4.54227 14.171 4.72668 14.0303 4.86264C13.8897 4.9986 13.6989 5.07499 13.5 5.07499Z" fill="#2C94C1"/>
<path d="M20.25 18.85H3.75C3.55109 18.85 3.36032 18.7736 3.21967 18.6377C3.07902 18.5017 3 18.3173 3 18.125C2.99934 17.3062 3.20363 16.4995 3.59543 15.7735C3.98723 15.0476 4.5549 14.4241 5.25 13.9563V10.15C5.24996 8.42697 5.95494 6.77387 7.21109 5.55144C8.46725 4.32901 10.1726 3.63649 11.955 3.625H12.0375C13.8277 3.625 15.5446 4.31245 16.8105 5.53613C18.0763 6.7598 18.7875 8.41946 18.7875 10.15V13.9563C19.4757 14.4281 20.0361 15.0534 20.4212 15.779C20.8063 16.5047 21.0049 17.3094 21 18.125C21 18.3173 20.921 18.5017 20.7803 18.6377C20.6397 18.7736 20.4489 18.85 20.25 18.85ZM4.575 17.4H19.425C19.3188 16.8974 19.1034 16.4223 18.7931 16.0061C18.4828 15.5899 18.0847 15.2421 17.625 14.9858C17.5105 14.9219 17.4156 14.8299 17.3497 14.7191C17.2839 14.6084 17.2495 14.4828 17.25 14.355V10.15C17.25 8.80403 16.6969 7.51318 15.7123 6.56143C14.7277 5.60969 13.3924 5.075 12 5.075C10.6076 5.075 9.27226 5.60969 8.28769 6.56143C7.30313 7.51318 6.75 8.80403 6.75 10.15V14.355C6.75053 14.4828 6.71612 14.6084 6.65027 14.7191C6.58442 14.8299 6.48945 14.9219 6.375 14.9858C5.91533 15.2421 5.51719 15.5899 5.2069 16.0061C4.89661 16.4223 4.68123 16.8974 4.575 17.4Z" fill="#2C94C1"/>
</g>
<defs>
<clipPath id="clip0_90_2070">
<rect width="24" height="23.2" fill="white"/>
</clipPath>
</defs>
</svg>
