<svg width="17" height="17" viewBox="0 0 17 17" fill="none" xmlns="http://www.w3.org/2000/svg">
<g clip-path="url(#clip0_146_1433)">
<path fill-rule="evenodd" clip-rule="evenodd" d="M0.150092 16.6114C0.0819359 16.541 0.0359606 16.4521 0.0178763 16.3558C-0.000208069 16.2595 0.0103958 16.1601 0.0483703 16.0697L2.95518 9.11341C2.9796 9.05152 3.01613 8.99512 3.06262 8.94753C3.10911 8.89993 3.16464 8.86209 3.22594 8.83623C3.28724 8.81036 3.35309 8.797 3.41963 8.79691C3.48616 8.79682 3.55205 8.81001 3.61342 8.83571C3.67479 8.86141 3.73042 8.8991 3.77704 8.94657C3.82366 8.99404 3.86033 9.05034 3.88491 9.11217C3.9095 9.17399 3.92149 9.24011 3.9202 9.30663C3.91891 9.37315 3.90435 9.43875 3.87738 9.49957L1.91008 14.208L9.51791 6.82959L8.17516 4.64678C8.14075 4.59083 8.1177 4.52865 8.10732 4.46379C8.09695 4.39894 8.09945 4.33267 8.11468 4.26877C8.12991 4.20488 8.15758 4.14461 8.19611 4.09141C8.23463 4.03821 8.28326 3.99312 8.33921 3.95872C8.39516 3.92431 8.45734 3.90126 8.5222 3.89088C8.58706 3.8805 8.65333 3.883 8.71722 3.89824C8.78111 3.91347 8.84138 3.94114 8.89458 3.97966C8.94778 4.01819 8.99287 4.06681 9.02728 4.12277L10.5213 6.55292L15.467 9.807C15.5826 9.88279 15.6749 9.98903 15.7339 10.114C15.7929 10.239 15.8162 10.3778 15.8012 10.5151C15.7863 10.6525 15.7337 10.7831 15.6493 10.8925C15.5648 11.0018 15.4518 11.0857 15.3227 11.1349L0.68836 16.7286C0.596925 16.7638 0.497163 16.7714 0.401471 16.7503C0.305779 16.7293 0.218372 16.6806 0.150107 16.6104L0.150092 16.6114ZM10.214 7.54733L2.60618 14.9258L14.5102 10.3744L10.214 7.54733Z" fill="white"/>
<path d="M3.52629 3.00003L3.52629 4.00003L2.99998 4.00003L2.99998 4.50003L3.52629 4.50003L3.52629 5.00003L2.99998 5.00003L2.99998 5.50003L3.52629 5.50003L3.52629 8.00003L4.05261 8.00003L4.05261 6.50003L5.63156 6.50003C6.34208 6.50003 6.98945 6.11003 7.29471 5.50003L7.99998 5.50003L7.99998 5.00003L7.45261 5.00003C7.48156 4.83503 7.48156 4.66503 7.45261 4.50003L7.99998 4.50003L7.99998 4.00003L7.29471 4.00003C6.98945 3.39003 6.34208 3.00003 5.63156 3.00003M4.05261 3.50003L5.63156 3.50003C6.04471 3.50003 6.43682 3.68503 6.68419 4.00003L4.05261 4.00003L4.05261 3.50003ZM5.63156 6.00003L4.05261 6.00003L4.05261 5.50003L6.68419 5.50003C6.43682 5.81503 6.04471 6.00003 5.63156 6.00003ZM6.94735 4.75003C6.94735 4.83503 6.93682 4.91753 6.92103 5.00003L4.05261 5.00003L4.05261 4.50003L6.92103 4.50003C6.93682 4.58253 6.94735 4.66503 6.94735 4.75003Z" fill="white"/>
</g>
<defs>
<clipPath id="clip0_146_1433">
<rect width="16" height="16" fill="white" transform="translate(16 17) rotate(-179.123)"/>
</clipPath>
</defs>
</svg>
