<svg width="17" height="3" viewBox="0 0 17 3" fill="none" xmlns="http://www.w3.org/2000/svg">
<path d="M1.35 2.7C0.983333 2.7 0.666666 2.56667 0.4 2.3C0.133333 2.03333 0 1.71667 0 1.35C0 0.966667 0.133333 0.645834 0.4 0.387501C0.666666 0.129167 0.983333 0 1.35 0C1.71667 0 2.0375 0.129167 2.3125 0.387501C2.5875 0.645834 2.725 0.966667 2.725 1.35C2.725 1.71667 2.5875 2.03333 2.3125 2.3C2.0375 2.56667 1.71667 2.7 1.35 2.7ZM8.475 2.7C8.10833 2.7 7.79167 2.56667 7.525 2.3C7.25833 2.03333 7.125 1.71667 7.125 1.35C7.125 0.966667 7.25833 0.645834 7.525 0.387501C7.79167 0.129167 8.10833 0 8.475 0C8.85833 0 9.17917 0.129167 9.4375 0.387501C9.69583 0.645834 9.825 0.966667 9.825 1.35C9.825 1.71667 9.69583 2.03333 9.4375 2.3C9.17917 2.56667 8.85833 2.7 8.475 2.7ZM15.6 2.7C15.2167 2.7 14.8917 2.56667 14.625 2.3C14.3583 2.03333 14.225 1.71667 14.225 1.35C14.225 0.966667 14.3583 0.645834 14.625 0.387501C14.8917 0.129167 15.2167 0 15.6 0C15.9833 0 16.3083 0.129167 16.575 0.387501C16.8417 0.645834 16.975 0.966667 16.975 1.35C16.975 1.71667 16.8417 2.03333 16.575 2.3C16.3083 2.56667 15.9833 2.7 15.6 2.7Z" fill="#5FA7C6"/>
</svg>
