<svg width="39" height="39" viewBox="0 0 39 39" fill="none" xmlns="http://www.w3.org/2000/svg">
<path d="M30.875 32.5V22.75M30.875 22.75L34.125 26M30.875 22.75L27.625 26" stroke="#006089" stroke-width="1.5" stroke-linecap="round" stroke-linejoin="round"/>
<path d="M35.75 19.5C35.75 13.3721 35.75 10.3074 33.8455 8.4045C31.9426 6.5 28.8779 6.5 22.75 6.5H16.25C10.1221 6.5 7.05737 6.5 5.1545 8.4045C3.25 10.3074 3.25 13.3721 3.25 19.5C3.25 25.6279 3.25 28.6926 5.1545 30.5955C7.05737 32.5 10.1221 32.5 16.25 32.5H22.75" stroke="#2C94C1" stroke-width="1.5" stroke-linecap="round"/>
<path opacity="0.4" d="M16.25 26H9.75M21.125 26H20.3125M3.25 16.25H35.75" stroke="#2C94C1" stroke-width="1.5" stroke-linecap="round"/>
</svg>
