<svg width="28" height="33" viewBox="0 0 28 33" fill="none" xmlns="http://www.w3.org/2000/svg">
<path d="M22.895 0.718132C20.6682 0.324665 17.7068 0 14 0C10.2932 0 7.33183 0.325381 5.10505 0.718849C2.15153 1.24132 0 3.80997 0 6.81008V20.1185C0 24.0417 3.17999 27.2217 7.10321 27.2217H20.8968C24.82 27.2217 28 24.0417 28 20.1185V6.80936C28 3.80926 25.8485 1.24061 22.895 0.718132ZM5.9529 22.3273C5.01761 22.3273 4.25934 21.5691 4.25934 20.6331C4.25934 19.6978 5.01761 18.9395 5.9529 18.9395C6.88891 18.9395 7.64718 19.6978 7.64718 20.6331C7.64718 21.5691 6.88891 22.3273 5.9529 22.3273ZM22.0471 22.3273C21.1111 22.3273 20.3528 21.5691 20.3528 20.6331C20.3528 19.6978 21.1111 18.9395 22.0471 18.9395C22.9824 18.9395 23.7407 19.6978 23.7407 20.6331C23.7407 21.5691 22.9824 22.3273 22.0471 22.3273ZM26.7013 14.7826C26.7013 15.3022 26.2799 15.7229 25.761 15.7229H2.23897C1.72008 15.7229 1.29866 15.3022 1.29866 14.7826V6.27183C1.29866 5.75223 1.72008 5.33152 2.23897 5.33152H25.761C26.2799 5.33152 26.7013 5.75223 26.7013 6.27183V14.7826Z" fill="#2C94C1"/>
<path d="M7.55188 24.977V30.4497C7.55188 31.3327 6.8359 32.0487 5.95293 32.0487C5.06996 32.0487 4.35397 31.3327 4.35397 30.4497V24.977H7.55188Z" fill="#2C94C1"/>
<path d="M23.6461 24.9769V30.4496C23.6461 31.3326 22.9301 32.0486 22.0472 32.0486C21.1642 32.0486 20.4482 31.3326 20.4482 30.4496V24.9769H23.6461Z" fill="#2C94C1"/>
</svg>
