<svg width="22" height="32" viewBox="0 0 22 32" fill="none" xmlns="http://www.w3.org/2000/svg">
<path d="M0.334198 20.9844C0.334198 26.8657 5.11868 31.6502 11 31.6502C16.8813 31.6502 21.6658 26.8657 21.6658 20.9844C21.6658 14.3986 12.2553 1.96275 11.8548 1.43643L11.0129 0.33075L10.1554 1.42487C9.75424 1.93691 0.334198 14.0368 0.334198 20.9844ZM4.5978 18.3025C5.17852 15.9517 6.32024 14.1191 6.36852 14.0423C6.68404 13.5404 7.34704 13.3895 7.84888 13.705C8.35072 14.0205 8.50168 14.6835 8.18616 15.1853C8.1474 15.2472 4.35164 21.3863 7.98148 24.5401C8.42892 24.9291 8.47652 25.607 8.08756 26.0551C7.8754 26.2993 7.57688 26.4244 7.27632 26.4244C7.02676 26.4244 6.77584 26.338 6.57252 26.1612C4.46384 24.3286 3.78112 21.6113 4.5978 18.3025Z" fill="#2C94C1"/>
</svg>
